<svg id="Layer_1" data-name="Layer 1" xmlns="http://www.w3.org/2000/svg" viewBox="0 0 418.51 125.23"><defs><style>.cls-1,.cls-2,.cls-3{fill:none;stroke-miterlimit:10;}.cls-1,.cls-2{stroke:#fff;}.cls-1{stroke-width:8px;}.cls-2,.cls-3{stroke-linecap:round;stroke-width:6px;}.cls-3{stroke:#f26c50;}.cls-4{fill:#fff;}</style></defs><circle class="cls-1" cx="60.23" cy="60.23" r="56.23"/><path class="cls-2" d="M69.27,40.65H55.37c-9.52,0-17.24,7-17.24,15.71h0c0,8.68,7.72,15.71,17.24,15.71H76.22" transform="translate(-5 -4)"/><path class="cls-3" d="M52,87.81H75.09c9.52,0,17.24-7,17.24-15.64h0c0-8.63-7.72-15.64-17.24-15.64H54.24" transform="translate(-5 -4)"/><path class="cls-4" d="M148.79,87.25l15.12-8.64a22.19,22.19,0,0,0,18.37,9.1c6.79,0,11-2.93,11-7.71,0-5.1-8-6-18.68-8.34C161.91,69,149.25,64.1,149.25,49.59c0-13.27,12.66-23.61,29-23.61C192.78,26,203.89,32.46,211,42l-15.13,8A20.14,20.14,0,0,0,178.42,41c-6.79,0-11.11,2.93-11.11,7.25,0,4.94,4.17,5.71,16.82,8.18,13.12,2.47,27.48,7.41,27.48,22.23,0,13.73-12.66,24.07-29.79,24.07C166.85,102.68,155.58,96.36,148.79,87.25Z" transform="translate(-5 -4)"/><path class="cls-4" d="M221,27.67h19v9.26c4.93-6.79,12.65-10.8,22.22-10.8,18.37,0,32.41,14.2,32.41,37.35v.16c0,23.61-13.89,38.43-32.56,38.43A26.84,26.84,0,0,1,240,91.26v38H221Zm53.56,36.58V63.17c0-14.35-6.95-21.45-17.6-21.45-11.11,0-17.9,9.11-17.9,22.07v1.39c0,12.81,6.48,21.3,17.9,21.3C267.32,86.48,274.58,78.61,274.58,64.25Z" transform="translate(-5 -4)"/><path class="cls-4" d="M301.28,81.23c0-16.36,12.19-20.06,28.55-23.61,13.43-2.63,20.22-3.24,20.68-7.26v-.77c0-4.32-3.86-8.33-13.74-8.33s-14.5,4.94-15,11.42v1.08h-19c.62-16.52,13.58-27.47,34.11-27.47,19.75,0,31.79,8.64,31.79,28.39v45.84H350.36V90.65c-4.63,7.56-13,11.73-23.77,11.73C311,102.38,301.28,93.89,301.28,81.23Zm49.23-10.8V64.25c-4.17,2.47-11,3.71-17,5.25-7.4,1.85-13,4.32-13,10.81,0,4.93,3.86,8.33,10.49,8.33C340.17,88.64,350.05,84,350.51,70.43Z" transform="translate(-5 -4)"/><path class="cls-4" d="M382,27.67h19.14V41.1c2-8.33,7.41-14.2,20.84-14.2h1.54V45.27H416c-11.58,0-14.82,5.25-14.82,17.9v37.35H382Z" transform="translate(-5 -4)"/></svg>