<svg id="Layer_1" data-name="Layer 1" xmlns="http://www.w3.org/2000/svg" viewBox="0 0 411.43 174.99"><defs><style>.cls-1{fill:#f26c4f;}</style></defs><path d="M2.59,96.66H29.15C32.4,114.09,41.52,121,60.79,121c16.22,0,25.55-7.1,25.55-19.27,0-11.76-15-14.6-33.46-18.24C30.57,79,6.24,71.71,6.24,45c0-24.54,21.09-42,49.88-42C88,3,108.24,19.2,111.48,48.4H85.32C83.09,32,73.56,24.47,55.92,24.47c-15,0-24.13,7.3-24.13,18.65,0,12.78,16.83,14.6,35.28,18.25,22.11,4.26,45,11.16,45,38.33,0,25.75-19.06,42.78-50.29,42.78C26.11,142.48,7.05,125.25,2.59,96.66Z" transform="translate(-2.59 -2.97)"/><path d="M125.47,44.54h24.94V56.71c6.49-8.92,16.63-14.2,29.2-14.2,24.13,0,42.59,18.66,42.59,49.08v.2c0,31-18.25,50.49-42.79,50.49-12.17,0-22.3-5.27-29-14.19V178H125.47ZM195.84,92.6V91.18c0-18.86-9.13-28.19-23.12-28.19-14.6,0-23.52,12-23.52,29v1.83c0,16.83,8.51,28,23.52,28C186.31,121.8,195.84,111.46,195.84,92.6Z" transform="translate(-2.59 -2.97)"/><path d="M230.92,114.91c0-21.5,16-26.37,37.51-31,17.64-3.45,26.56-4.26,27.17-9.53v-1c0-5.68-5.07-11-18.05-11s-19.06,6.48-19.66,15v1.42H232.94c.82-21.7,17.85-36.09,44.82-36.09,25.95,0,41.77,11.35,41.77,37.31v60.22H295.4v-13c-6.08,9.94-17,15.42-31.23,15.42C243.69,142.69,230.92,131.53,230.92,114.91Zm64.68-14.2V92.6c-5.47,3.24-14.4,4.87-22.3,6.89-9.74,2.44-17,5.68-17,14.2,0,6.49,5.07,11,13.79,11C282,124.64,295,118.55,295.6,100.71Z" transform="translate(-2.59 -2.97)"/><path d="M337,44.54h25.14V62.18c2.64-11,9.73-18.65,27.38-18.65h2V67.66h-9.93c-15.21,0-19.47,6.89-19.47,23.52v49.07H337Z" transform="translate(-2.59 -2.97)"/><path class="cls-1" d="M385.23,110.85H414v29.4H385.23Z" transform="translate(-2.59 -2.97)"/></svg>